<svg xmlns="http://www.w3.org/2000/svg" viewBox="0 0 1200 1600" font-family="Inter, Helvetica, Arial, sans-serif">
  <defs>
    <!-- Stage background gradients -->
    <linearGradient id="stage1bg" x1="0" y1="0" x2="0" y2="1">
      <stop offset="0%" stop-color="#EEF2FF"/>
      <stop offset="100%" stop-color="#E0E7FF"/>
    </linearGradient>
    <linearGradient id="stage2bg" x1="0" y1="0" x2="0" y2="1">
      <stop offset="0%" stop-color="#F0FDF4"/>
      <stop offset="100%" stop-color="#DCFCE7"/>
    </linearGradient>
    <linearGradient id="stage3bg" x1="0" y1="0" x2="0" y2="1">
      <stop offset="0%" stop-color="#FFF7ED"/>
      <stop offset="100%" stop-color="#FFEDD5"/>
    </linearGradient>
    <!-- Component gradients -->
    <linearGradient id="encoderGrad" x1="0" y1="0" x2="0" y2="1">
      <stop offset="0%" stop-color="#6366F1"/>
      <stop offset="100%" stop-color="#4F46E5"/>
    </linearGradient>
    <linearGradient id="predictorGrad" x1="0" y1="0" x2="0" y2="1">
      <stop offset="0%" stop-color="#8B5CF6"/>
      <stop offset="100%" stop-color="#7C3AED"/>
    </linearGradient>
    <linearGradient id="headGrad" x1="0" y1="0" x2="0" y2="1">
      <stop offset="0%" stop-color="#F59E0B"/>
      <stop offset="100%" stop-color="#D97706"/>
    </linearGradient>
    <linearGradient id="patientGrad" x1="0" y1="0" x2="0" y2="1">
      <stop offset="0%" stop-color="#10B981"/>
      <stop offset="100%" stop-color="#059669"/>
    </linearGradient>
    <linearGradient id="lossGrad" x1="0" y1="0" x2="0" y2="1">
      <stop offset="0%" stop-color="#EF4444"/>
      <stop offset="100%" stop-color="#DC2626"/>
    </linearGradient>
    <!-- Arrow marker -->
    <marker id="arrow" viewBox="0 0 10 7" refX="9" refY="3.5" markerWidth="10" markerHeight="7" orient="auto-start-reverse">
      <polygon points="0 0, 10 3.5, 0 7" fill="#475569"/>
    </marker>
    <marker id="arrowWhite" viewBox="0 0 10 7" refX="9" refY="3.5" markerWidth="10" markerHeight="7" orient="auto-start-reverse">
      <polygon points="0 0, 10 3.5, 0 7" fill="white"/>
    </marker>
    <!-- Shadow filter -->
    <filter id="shadow" x="-4%" y="-4%" width="108%" height="108%">
      <feDropShadow dx="0" dy="2" stdDeviation="3" flood-opacity="0.1"/>
    </filter>
    <filter id="shadowLg" x="-4%" y="-4%" width="108%" height="108%">
      <feDropShadow dx="0" dy="4" stdDeviation="6" flood-opacity="0.12"/>
    </filter>
  </defs>

  <!-- Background -->
  <rect width="1200" height="1600" fill="#F8FAFC" rx="0"/>

  <!-- Title -->
  <text x="600" y="52" text-anchor="middle" font-size="26" font-weight="700" fill="#0F172A">NCA-JEPA Pipeline for Data-Scarce Neural Decoding</text>
  <text x="600" y="78" text-anchor="middle" font-size="14" fill="#64748B">Three-stage pretraining: Synthetic → Real (unsupervised) → Per-patient (supervised)</text>

  <!-- ================================================================ -->
  <!-- STAGE 1: NCA Pre-pretraining -->
  <!-- ================================================================ -->
  <rect x="30" y="100" width="1140" height="400" rx="16" fill="url(#stage1bg)" stroke="#C7D2FE" stroke-width="1.5" filter="url(#shadowLg)"/>

  <!-- Stage label -->
  <rect x="50" y="112" width="260" height="32" rx="6" fill="#4F46E5"/>
  <text x="180" y="133" text-anchor="middle" font-size="14" font-weight="700" fill="white">STAGE 1: NCA Pre-pretraining</text>
  <text x="330" y="133" font-size="12" fill="#6366F1" font-weight="600">Unlimited synthetic data · Learn spatiotemporal primitives</text>

  <!-- NCA Grid Generation -->
  <rect x="60" y="160" width="220" height="200" rx="12" fill="white" stroke="#C7D2FE" stroke-width="1" filter="url(#shadow)"/>
  <text x="170" y="183" text-anchor="middle" font-size="12" font-weight="700" fill="#1E293B">NCA Data Generator</text>

  <!-- Mini grids showing NCA evolution -->
  <!-- Grid 1 -->
  <rect x="75" y="198" width="52" height="36" rx="3" fill="#F1F5F9" stroke="#CBD5E1" stroke-width="0.5"/>
  <g fill="#6366F1" opacity="0.3"><rect x="79" y="202" width="5" height="5" rx="1"/><rect x="91" y="208" width="5" height="5" rx="1"/><rect x="103" y="202" width="5" height="5" rx="1"/><rect x="85" y="220" width="5" height="5" rx="1"/><rect x="115" y="214" width="5" height="5" rx="1"/></g>
  <text x="101" y="248" text-anchor="middle" font-size="9" fill="#64748B">t=0</text>

  <!-- Arrow -->
  <line x1="130" y1="216" x2="142" y2="216" stroke="#94A3B8" stroke-width="1.5" marker-end="url(#arrow)"/>

  <!-- Grid 2 -->
  <rect x="145" y="198" width="52" height="36" rx="3" fill="#F1F5F9" stroke="#CBD5E1" stroke-width="0.5"/>
  <g fill="#6366F1" opacity="0.5"><rect x="149" y="205" width="5" height="5" rx="1"/><rect x="155" y="205" width="5" height="5" rx="1"/><rect x="167" y="211" width="5" height="5" rx="1"/><rect x="173" y="205" width="5" height="5" rx="1"/><rect x="161" y="217" width="5" height="5" rx="1"/><rect x="179" y="217" width="5" height="5" rx="1"/><rect x="155" y="223" width="5" height="5" rx="1"/><rect x="185" y="211" width="5" height="5" rx="1"/></g>
  <text x="171" y="248" text-anchor="middle" font-size="9" fill="#64748B">t=50</text>

  <!-- Arrow -->
  <line x1="200" y1="216" x2="212" y2="216" stroke="#94A3B8" stroke-width="1.5" marker-end="url(#arrow)"/>

  <!-- Grid 3 -->
  <rect x="215" y="198" width="52" height="36" rx="3" fill="#F1F5F9" stroke="#CBD5E1" stroke-width="0.5"/>
  <g fill="#6366F1" opacity="0.8"><rect x="219" y="202" width="5" height="5" rx="1"/><rect x="225" y="202" width="5" height="5" rx="1"/><rect x="231" y="208" width="5" height="5" rx="1"/><rect x="237" y="202" width="5" height="5" rx="1"/><rect x="243" y="208" width="5" height="5" rx="1"/><rect x="249" y="214" width="5" height="5" rx="1"/><rect x="225" y="214" width="5" height="5" rx="1"/><rect x="231" y="220" width="5" height="5" rx="1"/><rect x="243" y="220" width="5" height="5" rx="1"/><rect x="255" y="208" width="5" height="5" rx="1"/><rect x="219" y="220" width="5" height="5" rx="1"/></g>
  <text x="241" y="248" text-anchor="middle" font-size="9" fill="#64748B">t=100</text>

  <text x="170" y="270" text-anchor="middle" font-size="10" fill="#475569">Random rule per sequence</text>
  <text x="170" y="284" text-anchor="middle" font-size="10" fill="#475569">8×16 and 12×22 grids</text>

  <!-- Key insight callout -->
  <rect x="70" y="298" width="200" height="50" rx="8" fill="#EEF2FF" stroke="#A5B4FC" stroke-width="1" stroke-dasharray="4,3"/>
  <text x="170" y="316" text-anchor="middle" font-size="10" font-weight="600" fill="#4338CA">Each sequence has a LATENT rule.</text>
  <text x="170" y="330" text-anchor="middle" font-size="10" font-weight="600" fill="#4338CA">Model must infer it from context.</text>

  <!-- Flow arrow from NCA to Encoder -->
  <line x1="285" y1="260" x2="340" y2="260" stroke="#475569" stroke-width="2" marker-end="url(#arrow)"/>
  <text x="312" y="252" text-anchor="middle" font-size="9" fill="#64748B">frames</text>

  <!-- Encoder box -->
  <rect x="345" y="210" width="160" height="100" rx="12" fill="url(#encoderGrad)" filter="url(#shadow)"/>
  <text x="425" y="248" text-anchor="middle" font-size="15" font-weight="700" fill="white">ENCODER</text>
  <text x="425" y="268" text-anchor="middle" font-size="11" fill="#E0E7FF">ViT or CNN</text>
  <text x="425" y="284" text-anchor="middle" font-size="11" fill="#E0E7FF">frame → z (64-dim)</text>

  <!-- Arrow from Encoder to latent -->
  <line x1="505" y1="245" x2="560" y2="245" stroke="#475569" stroke-width="2" marker-end="url(#arrow)"/>

  <!-- Latent z_t -->
  <circle cx="590" cy="245" r="28" fill="white" stroke="#6366F1" stroke-width="2.5" filter="url(#shadow)"/>
  <text x="590" y="242" text-anchor="middle" font-size="14" font-weight="700" fill="#4F46E5">z</text>
  <text x="590" y="256" text-anchor="middle" font-size="10" fill="#6366F1" font-style="italic">t</text>

  <!-- Arrow from z_t to predictor -->
  <line x1="618" y1="245" x2="670" y2="245" stroke="#475569" stroke-width="2" marker-end="url(#arrow)"/>

  <!-- Predictor box -->
  <rect x="675" y="210" width="160" height="100" rx="12" fill="url(#predictorGrad)" filter="url(#shadow)"/>
  <text x="755" y="248" text-anchor="middle" font-size="15" font-weight="700" fill="white">PREDICTOR</text>
  <text x="755" y="268" text-anchor="middle" font-size="11" fill="#EDE9FE">Transformer or GRU</text>
  <text x="755" y="284" text-anchor="middle" font-size="11" fill="#EDE9FE">z_t → ẑ_{t+1}</text>

  <!-- Arrow from predictor to predicted z -->
  <line x1="835" y1="245" x2="888" y2="245" stroke="#475569" stroke-width="2" marker-end="url(#arrow)"/>

  <!-- Predicted z_{t+1} -->
  <circle cx="918" cy="245" r="28" fill="white" stroke="#8B5CF6" stroke-width="2.5" stroke-dasharray="6,3" filter="url(#shadow)"/>
  <text x="918" y="242" text-anchor="middle" font-size="14" font-weight="700" fill="#7C3AED">ẑ</text>
  <text x="918" y="256" text-anchor="middle" font-size="10" fill="#8B5CF6" font-style="italic">t+1</text>

  <!-- Actual z_{t+1} from encoder -->
  <circle cx="918" cy="370" r="28" fill="white" stroke="#6366F1" stroke-width="2.5" filter="url(#shadow)"/>
  <text x="918" y="367" text-anchor="middle" font-size="14" font-weight="700" fill="#4F46E5">z</text>
  <text x="918" y="381" text-anchor="middle" font-size="10" fill="#6366F1" font-style="italic">t+1</text>
  <text x="918" y="410" text-anchor="middle" font-size="10" fill="#64748B">(actual)</text>

  <!-- Encoder producing actual z_{t+1} -->
  <rect x="345" y="340" width="160" height="60" rx="12" fill="url(#encoderGrad)" opacity="0.6" filter="url(#shadow)"/>
  <text x="425" y="370" text-anchor="middle" font-size="13" font-weight="600" fill="white">ENCODER</text>
  <text x="425" y="386" text-anchor="middle" font-size="10" fill="#E0E7FF">same weights</text>

  <text x="312" y="372" text-anchor="middle" font-size="10" fill="#64748B">frame_{t+1}</text>
  <line x1="285" y1="370" x2="340" y2="370" stroke="#475569" stroke-width="1.5" marker-end="url(#arrow)"/>
  <line x1="505" y1="370" x2="885" y2="370" stroke="#475569" stroke-width="1.5" marker-end="url(#arrow)"/>

  <!-- Loss comparison arrow -->
  <line x1="918" y1="275" x2="918" y2="338" stroke="#EF4444" stroke-width="2.5" stroke-dasharray="5,3"/>

  <!-- Loss box -->
  <rect x="980" y="290" width="170" height="70" rx="10" fill="url(#lossGrad)" filter="url(#shadow)"/>
  <text x="1065" y="314" text-anchor="middle" font-size="12" font-weight="700" fill="white">LOSS</text>
  <text x="1065" y="332" text-anchor="middle" font-size="11" fill="#FEE2E2">MSE(ẑ, z) + λ·SIGReg</text>
  <text x="1065" y="348" text-anchor="middle" font-size="10" fill="#FECACA">predict + anti-collapse</text>

  <!-- Arrow from loss to comparison point -->
  <line x1="980" y1="325" x2="948" y2="310" stroke="#EF4444" stroke-width="1.5"/>

  <!-- ================================================================ -->
  <!-- Transfer arrow between Stage 1 and Stage 2 -->
  <!-- ================================================================ -->
  <g transform="translate(600, 510)">
    <rect x="-120" y="-10" width="240" height="40" rx="20" fill="#4F46E5" filter="url(#shadow)"/>
    <text x="0" y="7" text-anchor="middle" font-size="12" font-weight="700" fill="white">Transfer weights ↓</text>
    <text x="0" y="22" text-anchor="middle" font-size="10" fill="#C7D2FE">Encoder + Predictor → Stage 2</text>
  </g>

  <!-- ================================================================ -->
  <!-- STAGE 2: Neural JEPA Pretraining -->
  <!-- ================================================================ -->
  <rect x="30" y="555" width="1140" height="400" rx="16" fill="url(#stage2bg)" stroke="#BBF7D0" stroke-width="1.5" filter="url(#shadowLg)"/>

  <rect x="50" y="567" width="290" height="32" rx="6" fill="#059669"/>
  <text x="195" y="588" text-anchor="middle" font-size="14" font-weight="700" fill="white">STAGE 2: Neural JEPA Pretraining</text>
  <text x="360" y="588" font-size="12" fill="#059669" font-weight="600">All patients pooled · No labels · Self-supervised</text>

  <!-- Patient data boxes -->
  <rect x="60" y="615" width="200" height="310" rx="12" fill="white" stroke="#BBF7D0" stroke-width="1" filter="url(#shadow)"/>
  <text x="160" y="638" text-anchor="middle" font-size="12" font-weight="700" fill="#1E293B">All Patient Data (pooled)</text>

  <!-- Patient entries -->
  <g font-size="11" fill="#374151">
    <rect x="75" y="650" width="170" height="28" rx="6" fill="#F0FDF4" stroke="#86EFAC" stroke-width="0.5"/>
    <text x="85" y="669" font-weight="600" fill="#059669">S14</text><text x="125" y="669">153 trials · 8×16</text>

    <rect x="75" y="683" width="170" height="28" rx="6" fill="#F0FDF4" stroke="#86EFAC" stroke-width="0.5"/>
    <text x="85" y="702" font-weight="600" fill="#059669">S22</text><text x="125" y="702">148 trials · 8×16</text>

    <rect x="75" y="716" width="170" height="28" rx="6" fill="#F0FDF4" stroke="#86EFAC" stroke-width="0.5"/>
    <text x="85" y="735" font-weight="600" fill="#059669">S23</text><text x="125" y="735">151 trials · 8×16</text>

    <rect x="75" y="749" width="170" height="28" rx="6" fill="#F0FDF4" stroke="#86EFAC" stroke-width="0.5"/>
    <text x="85" y="768" font-weight="600" fill="#059669">S26</text><text x="125" y="768">137 trials · 8×16</text>

    <rect x="75" y="782" width="170" height="28" rx="6" fill="#F0FDF4" stroke="#86EFAC" stroke-width="0.5"/>
    <text x="85" y="801" font-weight="600" fill="#059669">S33</text><text x="125" y="801"> 52 trials · 12×22</text>

    <rect x="75" y="815" width="170" height="28" rx="6" fill="#F0FDF4" stroke="#86EFAC" stroke-width="0.5"/>
    <text x="85" y="834" font-weight="600" fill="#059669">S62</text><text x="125" y="834">191 trials · 12×22</text>

    <rect x="75" y="848" width="170" height="28" rx="6" fill="#ECFDF5" stroke="#86EFAC" stroke-width="0.5"/>
    <text x="160" y="867" text-anchor="middle" font-style="italic" fill="#6B7280">... + more patients</text>
  </g>

  <text x="160" y="900" text-anchor="middle" font-size="11" font-weight="600" fill="#059669">~1500+ trials total</text>

  <!-- Arrow from patients to per-patient embed -->
  <line x1="265" y1="760" x2="315" y2="760" stroke="#475569" stroke-width="2" marker-end="url(#arrow)"/>

  <!-- Per-patient embedding -->
  <rect x="320" y="700" width="150" height="120" rx="12" fill="url(#patientGrad)" filter="url(#shadow)"/>
  <text x="395" y="730" text-anchor="middle" font-size="13" font-weight="700" fill="white">Per-Patient</text>
  <text x="395" y="748" text-anchor="middle" font-size="13" font-weight="700" fill="white">Patch Embed</text>
  <text x="395" y="772" text-anchor="middle" font-size="10" fill="#D1FAE5">Maps each patient's</text>
  <text x="395" y="786" text-anchor="middle" font-size="10" fill="#D1FAE5">grid patches → shared</text>
  <text x="395" y="800" text-anchor="middle" font-size="10" fill="#D1FAE5">latent space (~260 params)</text>

  <!-- Arrow to encoder -->
  <line x1="470" y1="745" x2="530" y2="745" stroke="#475569" stroke-width="2" marker-end="url(#arrow)"/>

  <!-- Encoder (pretrained) -->
  <rect x="535" y="700" width="160" height="100" rx="12" fill="url(#encoderGrad)" filter="url(#shadow)"/>
  <text x="615" y="738" text-anchor="middle" font-size="15" font-weight="700" fill="white">ENCODER</text>
  <text x="615" y="758" text-anchor="middle" font-size="11" fill="#E0E7FF">pretrained from Stage 1</text>
  <text x="615" y="774" text-anchor="middle" font-size="11" fill="#E0E7FF">continues training</text>
  <!-- Pretrained badge -->
  <rect x="556" y="692" width="70" height="18" rx="9" fill="#4F46E5" stroke="white" stroke-width="1.5"/>
  <text x="591" y="704" text-anchor="middle" font-size="8" font-weight="700" fill="white">PRETRAINED</text>

  <!-- Arrow to predictor -->
  <line x1="695" y1="745" x2="750" y2="745" stroke="#475569" stroke-width="2" marker-end="url(#arrow)"/>

  <!-- z label on arrow -->
  <circle cx="722" cy="745" r="14" fill="white" stroke="#6366F1" stroke-width="1.5"/>
  <text x="722" y="749" text-anchor="middle" font-size="10" font-weight="700" fill="#4F46E5">z</text>

  <!-- Predictor (pretrained) -->
  <rect x="755" y="700" width="160" height="100" rx="12" fill="url(#predictorGrad)" filter="url(#shadow)"/>
  <text x="835" y="738" text-anchor="middle" font-size="15" font-weight="700" fill="white">PREDICTOR</text>
  <text x="835" y="758" text-anchor="middle" font-size="11" fill="#EDE9FE">pretrained from Stage 1</text>
  <text x="835" y="774" text-anchor="middle" font-size="11" fill="#EDE9FE">continues training</text>
  <rect x="776" y="692" width="70" height="18" rx="9" fill="#7C3AED" stroke="white" stroke-width="1.5"/>
  <text x="811" y="704" text-anchor="middle" font-size="8" font-weight="700" fill="white">PRETRAINED</text>

  <!-- Loss for Stage 2 -->
  <rect x="980" y="720" width="170" height="70" rx="10" fill="url(#lossGrad)" filter="url(#shadow)"/>
  <text x="1065" y="744" text-anchor="middle" font-size="12" font-weight="700" fill="white">SAME LOSS</text>
  <text x="1065" y="762" text-anchor="middle" font-size="11" fill="#FEE2E2">MSE(ẑ, z) + λ·SIGReg</text>
  <text x="1065" y="778" text-anchor="middle" font-size="10" fill="#FECACA">No labels used</text>
  <line x1="915" y1="750" x2="975" y2="750" stroke="#EF4444" stroke-width="1.5" marker-end="url(#arrow)"/>

  <!-- Key insight callout for Stage 2 -->
  <rect x="535" y="830" width="380" height="50" rx="8" fill="#F0FDF4" stroke="#6EE7B7" stroke-width="1" stroke-dasharray="4,3"/>
  <text x="725" y="851" text-anchor="middle" font-size="11" font-weight="600" fill="#065F46">Encoder adapts from synthetic → real cortical dynamics.</text>
  <text x="725" y="867" text-anchor="middle" font-size="11" font-weight="600" fill="#065F46">Learns what's universal across patients (no labels needed).</text>

  <!-- ================================================================ -->
  <!-- Transfer arrow between Stage 2 and Stage 3 -->
  <!-- ================================================================ -->
  <g transform="translate(600, 968)">
    <rect x="-150" y="-10" width="300" height="40" rx="20" fill="#059669" filter="url(#shadow)"/>
    <text x="0" y="7" text-anchor="middle" font-size="12" font-weight="700" fill="white">Freeze or lightly fine-tune ↓</text>
    <text x="0" y="22" text-anchor="middle" font-size="10" fill="#A7F3D0">Encoder + Predictor + Patient Embeds → Stage 3</text>
  </g>

  <!-- ================================================================ -->
  <!-- STAGE 3: Per-Patient Fine-tuning -->
  <!-- ================================================================ -->
  <rect x="30" y="1015" width="1140" height="420" rx="16" fill="url(#stage3bg)" stroke="#FED7AA" stroke-width="1.5" filter="url(#shadowLg)"/>

  <rect x="50" y="1027" width="300" height="32" rx="6" fill="#D97706"/>
  <text x="200" y="1048" text-anchor="middle" font-size="14" font-weight="700" fill="white">STAGE 3: Per-Patient Fine-tuning</text>
  <text x="370" y="1048" font-size="12" fill="#D97706" font-weight="600">Each patient independently · WITH labels · 5-fold CV</text>

  <!-- Trial input -->
  <rect x="60" y="1080" width="180" height="130" rx="12" fill="white" stroke="#FED7AA" stroke-width="1" filter="url(#shadow)"/>
  <text x="150" y="1103" text-anchor="middle" font-size="12" font-weight="700" fill="#1E293B">Single Trial</text>
  <text x="150" y="1120" text-anchor="middle" font-size="11" fill="#64748B">e.g. patient says "aba"</text>

  <!-- Frame sequence representation -->
  <g transform="translate(80, 1130)">
    <rect x="0" y="0" width="28" height="20" rx="2" fill="#FDBA74"/><text x="14" y="14" text-anchor="middle" font-size="7" fill="#7C2D12">f₁</text>
    <rect x="32" y="0" width="28" height="20" rx="2" fill="#FB923C"/><text x="46" y="14" text-anchor="middle" font-size="7" fill="#7C2D12">f₂</text>
    <rect x="64" y="0" width="28" height="20" rx="2" fill="#F97316"/><text x="78" y="14" text-anchor="middle" font-size="7" fill="white">f₃</text>
    <text x="100" y="14" font-size="11" fill="#9CA3AF">···</text>
    <rect x="112" y="0" width="28" height="20" rx="2" fill="#EA580C"/><text x="126" y="14" text-anchor="middle" font-size="7" fill="white">f_T</text>
  </g>
  <text x="150" y="1172" text-anchor="middle" font-size="10" fill="#78716C">300 frames × (8×16 grid) at 200Hz</text>
  <text x="150" y="1186" text-anchor="middle" font-size="10" fill="#78716C">1.5 seconds of brain activity</text>

  <!-- Arrow to frozen pipeline -->
  <line x1="245" y1="1150" x2="310" y2="1150" stroke="#475569" stroke-width="2" marker-end="url(#arrow)"/>

  <!-- Frozen encoder+predictor pipeline -->
  <rect x="315" y="1078" width="370" height="150" rx="14" fill="white" stroke="#94A3B8" stroke-width="1.5" stroke-dasharray="8,4" filter="url(#shadow)"/>
  <text x="500" y="1098" text-anchor="middle" font-size="11" fill="#64748B" font-weight="600">FROZEN (pretrained from Stages 1+2)</text>

  <!-- Per-patient embed (small) -->
  <rect x="330" y="1110" width="90" height="50" rx="8" fill="url(#patientGrad)" opacity="0.8"/>
  <text x="375" y="1132" text-anchor="middle" font-size="10" font-weight="600" fill="white">Patient</text>
  <text x="375" y="1146" text-anchor="middle" font-size="10" font-weight="600" fill="white">Embed</text>

  <line x1="420" y1="1135" x2="440" y2="1135" stroke="#475569" stroke-width="1.5" marker-end="url(#arrow)"/>

  <!-- Encoder (frozen) -->
  <rect x="445" y="1110" width="100" height="50" rx="8" fill="url(#encoderGrad)" opacity="0.7"/>
  <text x="495" y="1132" text-anchor="middle" font-size="11" font-weight="600" fill="white">ENCODER</text>
  <text x="495" y="1146" text-anchor="middle" font-size="9" fill="#C7D2FE">→ z_{1:T}</text>

  <line x1="545" y1="1135" x2="565" y2="1135" stroke="#475569" stroke-width="1.5" marker-end="url(#arrow)"/>

  <!-- Predictor (frozen) -->
  <rect x="570" y="1110" width="100" height="50" rx="8" fill="url(#predictorGrad)" opacity="0.7"/>
  <text x="620" y="1132" text-anchor="middle" font-size="11" font-weight="600" fill="white">PREDICTOR</text>
  <text x="620" y="1146" text-anchor="middle" font-size="9" fill="#DDD6FE">→ h_{1:T}</text>

  <!-- Output: contextualized latent trajectory -->
  <line x1="500" y1="1228" x2="500" y2="1260" stroke="#475569" stroke-width="2" marker-end="url(#arrow)"/>
  <text x="500" y="1248" text-anchor="middle" font-size="10" fill="#64748B">contextualized latent trajectory h_{1:T}</text>

  <!-- MFA Pooling -->
  <rect x="315" y="1265" width="370" height="80" rx="12" fill="white" stroke="#FED7AA" stroke-width="1" filter="url(#shadow)"/>
  <text x="500" y="1288" text-anchor="middle" font-size="12" font-weight="700" fill="#1E293B">MFA-Guided Temporal Pooling</text>
  <text x="500" y="1305" text-anchor="middle" font-size="10" fill="#64748B">Pool latent vectors within each phoneme's time window</text>

  <!-- Three pooling windows -->
  <rect x="340" y="1312" width="80" height="24" rx="4" fill="#FEF3C7" stroke="#F59E0B" stroke-width="1"/>
  <text x="380" y="1328" text-anchor="middle" font-size="10" font-weight="600" fill="#92400E">/a/ window</text>

  <rect x="430" y="1312" width="80" height="24" rx="4" fill="#FEF3C7" stroke="#F59E0B" stroke-width="1"/>
  <text x="470" y="1328" text-anchor="middle" font-size="10" font-weight="600" fill="#92400E">/b/ window</text>

  <rect x="520" y="1312" width="80" height="24" rx="4" fill="#FEF3C7" stroke="#F59E0B" stroke-width="1"/>
  <text x="560" y="1328" text-anchor="middle" font-size="10" font-weight="600" fill="#92400E">/a/ window</text>

  <!-- Arrows down to classification heads -->
  <line x1="380" y1="1345" x2="380" y2="1368" stroke="#475569" stroke-width="1.5" marker-end="url(#arrow)"/>
  <line x1="470" y1="1345" x2="470" y2="1368" stroke="#475569" stroke-width="1.5" marker-end="url(#arrow)"/>
  <line x1="560" y1="1345" x2="560" y2="1368" stroke="#475569" stroke-width="1.5" marker-end="url(#arrow)"/>

  <!-- Classification heads -->
  <rect x="340" y="1372" width="80" height="40" rx="8" fill="url(#headGrad)" filter="url(#shadow)"/>
  <text x="380" y="1392" text-anchor="middle" font-size="10" font-weight="700" fill="white">Linear(9)</text>
  <text x="380" y="1404" text-anchor="middle" font-size="8" fill="#FEF3C7">NEW</text>

  <rect x="430" y="1372" width="80" height="40" rx="8" fill="url(#headGrad)" filter="url(#shadow)"/>
  <text x="470" y="1392" text-anchor="middle" font-size="10" font-weight="700" fill="white">Linear(9)</text>
  <text x="470" y="1404" text-anchor="middle" font-size="8" fill="#FEF3C7">NEW</text>

  <rect x="520" y="1372" width="80" height="40" rx="8" fill="url(#headGrad)" filter="url(#shadow)"/>
  <text x="560" y="1392" text-anchor="middle" font-size="10" font-weight="700" fill="white">Linear(9)</text>
  <text x="560" y="1404" text-anchor="middle" font-size="8" fill="#FEF3C7">NEW</text>

  <!-- Predictions -->
  <text x="380" y="1428" text-anchor="middle" font-size="11" font-weight="700" fill="#D97706">→ /a/ ✓</text>
  <text x="470" y="1428" text-anchor="middle" font-size="11" font-weight="700" fill="#D97706">→ /b/ ✓</text>
  <text x="560" y="1428" text-anchor="middle" font-size="11" font-weight="700" fill="#D97706">→ /a/ ✓</text>

  <!-- CE Loss -->
  <rect x="750" y="1365" width="170" height="55" rx="10" fill="url(#lossGrad)" filter="url(#shadow)"/>
  <text x="835" y="1389" text-anchor="middle" font-size="12" font-weight="700" fill="white">CE LOSS</text>
  <text x="835" y="1407" text-anchor="middle" font-size="11" fill="#FEE2E2">Cross-entropy per position</text>
  <line x1="605" y1="1392" x2="745" y2="1392" stroke="#EF4444" stroke-width="1.5" marker-end="url(#arrow)"/>

  <!-- Key insight callout for Stage 3 -->
  <rect x="750" y="1080" width="400" height="145" rx="12" fill="white" stroke="#FED7AA" stroke-width="1" filter="url(#shadow)"/>
  <text x="950" y="1104" text-anchor="middle" font-size="12" font-weight="700" fill="#92400E">Why this works</text>
  <line x1="770" y1="1112" x2="1130" y2="1112" stroke="#FED7AA" stroke-width="0.5"/>
  <text x="770" y="1132" font-size="11" fill="#1E293B">Without pretraining: encoder must learn</text>
  <text x="770" y="1148" font-size="11" fill="#1E293B">"what spatial patterns mean" from ~150 trials.</text>
  <text x="770" y="1164" font-size="11" font-weight="600" fill="#DC2626">Not enough data.</text>
  <text x="770" y="1188" font-size="11" fill="#1E293B">With pretraining: encoder already reads</text>
  <text x="770" y="1204" font-size="11" fill="#1E293B">grid patterns. Head just learns mapping:</text>
  <text x="770" y="1220" font-size="11" font-weight="600" fill="#059669">THIS pattern = /b/, THAT pattern = /a/</text>

  <!-- ================================================================ -->
  <!-- Bottom: The Core Insight -->
  <!-- ================================================================ -->
  <rect x="30" y="1450" width="1140" height="130" rx="16" fill="#1E1B4B" filter="url(#shadowLg)"/>
  <text x="600" y="1480" text-anchor="middle" font-size="16" font-weight="700" fill="#C7D2FE">THE CORE INSIGHT</text>
  <line x1="400" y1="1490" x2="800" y2="1490" stroke="#4F46E5" stroke-width="1"/>
  <text x="600" y="1515" text-anchor="middle" font-size="13" fill="#E0E7FF">NCA sequences have latent rules. Neural trials have latent phonemes.</text>
  <text x="600" y="1537" text-anchor="middle" font-size="13" fill="#E0E7FF">Both require inferring an unseen cause from spatiotemporal dynamics on a 2D grid.</text>
  <text x="600" y="1559" text-anchor="middle" font-size="13" font-weight="600" fill="#A5B4FC">NCA pre-pretraining teaches this skill on unlimited synthetic data. JEPA provides the stable training recipe.</text>

</svg>